<mxfile host="app.diagrams.net" agent="Mozilla/5.0 (Windows NT 10.0; Win64; x64) AppleWebKit/537.36 (KHTML, like Gecko) Chrome/134.0.0.0 Safari/537.36" version="26.1.3">
  <diagram id="BVIsLJd-EIhTwD6Ap7SN" name="Page-1">
    <mxGraphModel dx="1430" dy="757" grid="1" gridSize="5" guides="1" tooltips="1" connect="1" arrows="1" fold="1" page="1" pageScale="1" pageWidth="827" pageHeight="1169" math="0" shadow="0">
      <root>
        <mxCell id="0" />
        <mxCell id="1" parent="0" />
        <mxCell id="5o1DRQTQQE2t-LGhYz-k-8" value="Setup" style="rounded=1;whiteSpace=wrap;html=1;strokeWidth=2;fontFamily=Times New Roman;fontSize=14;fontStyle=1" vertex="1" parent="1">
          <mxGeometry x="294" y="15" width="110" height="60" as="geometry" />
        </mxCell>
        <mxCell id="5o1DRQTQQE2t-LGhYz-k-9" value="Modules" style="rounded=1;whiteSpace=wrap;html=1;strokeWidth=2;fontFamily=Times New Roman;fontSize=14;fontStyle=1" vertex="1" parent="1">
          <mxGeometry x="517" y="15" width="110" height="60" as="geometry" />
        </mxCell>
        <mxCell id="5o1DRQTQQE2t-LGhYz-k-10" style="edgeStyle=orthogonalEdgeStyle;rounded=1;orthogonalLoop=1;jettySize=auto;html=1;curved=0;strokeWidth=2;endArrow=blockThin;endFill=1;fontFamily=Times New Roman;fontSize=14;entryX=1;entryY=0.5;entryDx=0;entryDy=0;exitX=0;exitY=0.5;exitDx=0;exitDy=0;" edge="1" parent="1" source="5o1DRQTQQE2t-LGhYz-k-9" target="5o1DRQTQQE2t-LGhYz-k-8">
          <mxGeometry relative="1" as="geometry">
            <mxPoint x="412" y="55" as="sourcePoint" />
            <mxPoint x="727" y="20" as="targetPoint" />
            <Array as="points">
              <mxPoint x="422" y="45" />
              <mxPoint x="422" y="45" />
            </Array>
          </mxGeometry>
        </mxCell>
        <mxCell id="5o1DRQTQQE2t-LGhYz-k-24" value="rotary Encoder with Button" style="rounded=1;whiteSpace=wrap;html=1;strokeWidth=2;fontFamily=Times New Roman;fontSize=14;fontStyle=1" vertex="1" parent="1">
          <mxGeometry x="517" y="120" width="110" height="60" as="geometry" />
        </mxCell>
        <mxCell id="5o1DRQTQQE2t-LGhYz-k-27" style="edgeStyle=orthogonalEdgeStyle;rounded=1;orthogonalLoop=1;jettySize=auto;html=1;curved=0;strokeWidth=2;endArrow=blockThin;endFill=1;exitX=1;exitY=0.25;exitDx=0;exitDy=0;fontFamily=Times New Roman;fontSize=14;entryX=0;entryY=0.25;entryDx=0;entryDy=0;" edge="1" parent="1" source="5o1DRQTQQE2t-LGhYz-k-7" target="5o1DRQTQQE2t-LGhYz-k-24">
          <mxGeometry relative="1" as="geometry">
            <mxPoint x="484.5" y="134.89" as="sourcePoint" />
            <mxPoint x="537.5" y="134.89" as="targetPoint" />
          </mxGeometry>
        </mxCell>
        <mxCell id="5o1DRQTQQE2t-LGhYz-k-28" style="edgeStyle=orthogonalEdgeStyle;rounded=1;orthogonalLoop=1;jettySize=auto;html=1;curved=0;strokeWidth=2;endArrow=blockThin;endFill=1;exitX=0;exitY=0.75;exitDx=0;exitDy=0;fontFamily=Times New Roman;fontSize=14;entryX=1;entryY=0.25;entryDx=0;entryDy=0;" edge="1" parent="1" source="5o1DRQTQQE2t-LGhYz-k-24" target="5o1DRQTQQE2t-LGhYz-k-7">
          <mxGeometry relative="1" as="geometry">
            <mxPoint x="432" y="215" as="sourcePoint" />
            <mxPoint x="552" y="215" as="targetPoint" />
          </mxGeometry>
        </mxCell>
        <mxCell id="5o1DRQTQQE2t-LGhYz-k-30" value="update" style="text;html=1;align=center;verticalAlign=middle;whiteSpace=wrap;rounded=0;fontStyle=2" vertex="1" parent="1">
          <mxGeometry x="457" y="110" width="60" height="30" as="geometry" />
        </mxCell>
        <mxCell id="5o1DRQTQQE2t-LGhYz-k-34" value="OLED display" style="rounded=1;whiteSpace=wrap;html=1;strokeWidth=2;fontFamily=Times New Roman;fontSize=14;fontStyle=1" vertex="1" parent="1">
          <mxGeometry x="517" y="201" width="110" height="60" as="geometry" />
        </mxCell>
        <mxCell id="5o1DRQTQQE2t-LGhYz-k-35" value="update" style="text;html=1;align=center;verticalAlign=middle;whiteSpace=wrap;rounded=0;fontStyle=2" vertex="1" parent="1">
          <mxGeometry x="457" y="205" width="60" height="30" as="geometry" />
        </mxCell>
        <mxCell id="5o1DRQTQQE2t-LGhYz-k-37" style="edgeStyle=orthogonalEdgeStyle;rounded=1;orthogonalLoop=1;jettySize=auto;html=1;curved=0;strokeWidth=2;endArrow=blockThin;endFill=1;exitX=1;exitY=0.25;exitDx=0;exitDy=0;fontFamily=Times New Roman;fontSize=14;entryX=0;entryY=0.5;entryDx=0;entryDy=0;" edge="1" parent="1" source="5o1DRQTQQE2t-LGhYz-k-7" target="5o1DRQTQQE2t-LGhYz-k-34">
          <mxGeometry relative="1" as="geometry">
            <mxPoint x="537" y="250" as="sourcePoint" />
            <mxPoint x="417" y="285" as="targetPoint" />
            <Array as="points">
              <mxPoint x="461" y="205" />
              <mxPoint x="461" y="231" />
            </Array>
          </mxGeometry>
        </mxCell>
        <mxCell id="5o1DRQTQQE2t-LGhYz-k-38" value="LED control" style="rounded=1;whiteSpace=wrap;html=1;strokeWidth=2;fontFamily=Times New Roman;fontSize=14;fontStyle=1" vertex="1" parent="1">
          <mxGeometry x="517" y="282" width="110" height="60" as="geometry" />
        </mxCell>
        <mxCell id="5o1DRQTQQE2t-LGhYz-k-39" style="edgeStyle=orthogonalEdgeStyle;rounded=1;orthogonalLoop=1;jettySize=auto;html=1;curved=0;strokeWidth=2;endArrow=blockThin;endFill=1;exitX=1;exitY=0.5;exitDx=0;exitDy=0;fontFamily=Times New Roman;fontSize=14;entryX=0;entryY=0.5;entryDx=0;entryDy=0;" edge="1" parent="1" source="5o1DRQTQQE2t-LGhYz-k-7" target="5o1DRQTQQE2t-LGhYz-k-38">
          <mxGeometry relative="1" as="geometry">
            <mxPoint x="402" y="205" as="sourcePoint" />
            <mxPoint x="522" y="245" as="targetPoint" />
            <Array as="points">
              <mxPoint x="456" y="305" />
              <mxPoint x="456" y="312" />
            </Array>
          </mxGeometry>
        </mxCell>
        <mxCell id="5o1DRQTQQE2t-LGhYz-k-40" value="set" style="text;html=1;align=center;verticalAlign=middle;whiteSpace=wrap;rounded=0;fontStyle=2" vertex="1" parent="1">
          <mxGeometry x="457" y="285" width="60" height="30" as="geometry" />
        </mxCell>
        <mxCell id="5o1DRQTQQE2t-LGhYz-k-41" value="fan control" style="rounded=1;whiteSpace=wrap;html=1;strokeWidth=2;fontFamily=Times New Roman;fontSize=14;fontStyle=1" vertex="1" parent="1">
          <mxGeometry x="517" y="363" width="110" height="60" as="geometry" />
        </mxCell>
        <mxCell id="5o1DRQTQQE2t-LGhYz-k-42" style="edgeStyle=orthogonalEdgeStyle;rounded=1;orthogonalLoop=1;jettySize=auto;html=1;curved=0;strokeWidth=2;endArrow=blockThin;endFill=1;exitX=1;exitY=0.5;exitDx=0;exitDy=0;fontFamily=Times New Roman;fontSize=14;entryX=0;entryY=0.5;entryDx=0;entryDy=0;" edge="1" parent="1" source="5o1DRQTQQE2t-LGhYz-k-7" target="5o1DRQTQQE2t-LGhYz-k-41">
          <mxGeometry relative="1" as="geometry">
            <mxPoint x="397" y="380" as="sourcePoint" />
            <mxPoint x="517" y="415" as="targetPoint" />
            <Array as="points">
              <mxPoint x="456" y="305" />
              <mxPoint x="456" y="393" />
            </Array>
          </mxGeometry>
        </mxCell>
        <mxCell id="5o1DRQTQQE2t-LGhYz-k-43" value="set" style="text;html=1;align=center;verticalAlign=middle;whiteSpace=wrap;rounded=0;fontStyle=2" vertex="1" parent="1">
          <mxGeometry x="457" y="365" width="60" height="30" as="geometry" />
        </mxCell>
        <mxCell id="5o1DRQTQQE2t-LGhYz-k-50" value="Helper classes&amp;nbsp;&lt;div&gt;&amp;amp; config&lt;/div&gt;" style="rounded=1;whiteSpace=wrap;html=1;strokeWidth=2;fontFamily=Times New Roman;fontSize=14;fontStyle=1" vertex="1" parent="1">
          <mxGeometry x="702" y="120" width="110" height="60" as="geometry" />
        </mxCell>
        <mxCell id="5o1DRQTQQE2t-LGhYz-k-51" style="edgeStyle=orthogonalEdgeStyle;rounded=1;orthogonalLoop=1;jettySize=auto;html=1;curved=0;strokeWidth=2;endArrow=blockThin;endFill=1;exitX=0;exitY=0.5;exitDx=0;exitDy=0;fontFamily=Times New Roman;fontSize=14;entryX=1;entryY=0.5;entryDx=0;entryDy=0;" edge="1" parent="1" source="5o1DRQTQQE2t-LGhYz-k-50" target="5o1DRQTQQE2t-LGhYz-k-24">
          <mxGeometry relative="1" as="geometry">
            <mxPoint x="657" y="240" as="sourcePoint" />
            <mxPoint x="702" y="325" as="targetPoint" />
            <Array as="points">
              <mxPoint x="652" y="150" />
              <mxPoint x="652" y="150" />
            </Array>
          </mxGeometry>
        </mxCell>
        <mxCell id="5o1DRQTQQE2t-LGhYz-k-52" style="edgeStyle=orthogonalEdgeStyle;rounded=1;orthogonalLoop=1;jettySize=auto;html=1;curved=0;strokeWidth=2;endArrow=blockThin;endFill=1;exitX=0;exitY=0.5;exitDx=0;exitDy=0;fontFamily=Times New Roman;fontSize=14;entryX=1;entryY=0.5;entryDx=0;entryDy=0;" edge="1" parent="1" source="5o1DRQTQQE2t-LGhYz-k-50" target="5o1DRQTQQE2t-LGhYz-k-34">
          <mxGeometry relative="1" as="geometry">
            <mxPoint x="732" y="255" as="sourcePoint" />
            <mxPoint x="657" y="255" as="targetPoint" />
            <Array as="points">
              <mxPoint x="682" y="150" />
              <mxPoint x="682" y="231" />
            </Array>
          </mxGeometry>
        </mxCell>
        <mxCell id="5o1DRQTQQE2t-LGhYz-k-53" value="Bitmaps" style="rounded=1;whiteSpace=wrap;html=1;strokeWidth=2;fontFamily=Times New Roman;fontSize=14;fontStyle=1" vertex="1" parent="1">
          <mxGeometry x="702" y="200" width="110" height="60" as="geometry" />
        </mxCell>
        <mxCell id="5o1DRQTQQE2t-LGhYz-k-54" style="edgeStyle=orthogonalEdgeStyle;rounded=1;orthogonalLoop=1;jettySize=auto;html=1;curved=0;strokeWidth=2;endArrow=blockThin;endFill=1;fontFamily=Times New Roman;fontSize=14;exitX=0;exitY=0.75;exitDx=0;exitDy=0;" edge="1" parent="1" source="5o1DRQTQQE2t-LGhYz-k-53">
          <mxGeometry relative="1" as="geometry">
            <mxPoint x="702" y="240" as="sourcePoint" />
            <mxPoint x="627" y="246" as="targetPoint" />
            <Array as="points">
              <mxPoint x="702" y="246" />
            </Array>
          </mxGeometry>
        </mxCell>
        <mxCell id="5o1DRQTQQE2t-LGhYz-k-55" value="get" style="text;html=1;align=center;verticalAlign=middle;whiteSpace=wrap;rounded=0;fontStyle=2" vertex="1" parent="1">
          <mxGeometry x="622" y="205" width="60" height="30" as="geometry" />
        </mxCell>
        <mxCell id="5o1DRQTQQE2t-LGhYz-k-56" value="get" style="text;html=1;align=center;verticalAlign=middle;whiteSpace=wrap;rounded=0;fontStyle=2" vertex="1" parent="1">
          <mxGeometry x="627" y="125" width="60" height="30" as="geometry" />
        </mxCell>
        <mxCell id="5o1DRQTQQE2t-LGhYz-k-57" style="edgeStyle=orthogonalEdgeStyle;rounded=1;orthogonalLoop=1;jettySize=auto;html=1;curved=0;strokeWidth=2;endArrow=blockThin;endFill=1;exitX=0;exitY=0.5;exitDx=0;exitDy=0;fontFamily=Times New Roman;fontSize=14;entryX=1;entryY=0.5;entryDx=0;entryDy=0;" edge="1" parent="1" source="5o1DRQTQQE2t-LGhYz-k-50" target="5o1DRQTQQE2t-LGhYz-k-38">
          <mxGeometry relative="1" as="geometry">
            <mxPoint x="707" y="155" as="sourcePoint" />
            <mxPoint x="632" y="245" as="targetPoint" />
            <Array as="points">
              <mxPoint x="682" y="150" />
              <mxPoint x="682" y="312" />
            </Array>
          </mxGeometry>
        </mxCell>
        <mxCell id="5o1DRQTQQE2t-LGhYz-k-58" value="get" style="text;html=1;align=center;verticalAlign=middle;whiteSpace=wrap;rounded=0;fontStyle=2" vertex="1" parent="1">
          <mxGeometry x="627" y="285" width="60" height="30" as="geometry" />
        </mxCell>
        <mxCell id="5o1DRQTQQE2t-LGhYz-k-59" style="edgeStyle=orthogonalEdgeStyle;rounded=1;orthogonalLoop=1;jettySize=auto;html=1;curved=0;strokeWidth=2;endArrow=blockThin;endFill=1;exitX=0;exitY=0.5;exitDx=0;exitDy=0;fontFamily=Times New Roman;fontSize=14;entryX=1;entryY=0.5;entryDx=0;entryDy=0;" edge="1" parent="1" source="5o1DRQTQQE2t-LGhYz-k-50" target="5o1DRQTQQE2t-LGhYz-k-41">
          <mxGeometry relative="1" as="geometry">
            <mxPoint x="702" y="154.97000000000003" as="sourcePoint" />
            <mxPoint x="627" y="334.97" as="targetPoint" />
            <Array as="points">
              <mxPoint x="682" y="150" />
              <mxPoint x="682" y="393" />
            </Array>
          </mxGeometry>
        </mxCell>
        <mxCell id="5o1DRQTQQE2t-LGhYz-k-60" value="get" style="text;html=1;align=center;verticalAlign=middle;whiteSpace=wrap;rounded=0;fontStyle=2" vertex="1" parent="1">
          <mxGeometry x="627" y="365" width="60" height="30" as="geometry" />
        </mxCell>
        <mxCell id="5o1DRQTQQE2t-LGhYz-k-61" style="edgeStyle=orthogonalEdgeStyle;rounded=1;orthogonalLoop=1;jettySize=auto;html=1;curved=0;strokeWidth=2;endArrow=blockThin;endFill=1;exitX=0;exitY=0.5;exitDx=0;exitDy=0;fontFamily=Times New Roman;fontSize=14;entryX=1;entryY=0.5;entryDx=0;entryDy=0;" edge="1" parent="1" source="5o1DRQTQQE2t-LGhYz-k-50" target="5o1DRQTQQE2t-LGhYz-k-110">
          <mxGeometry relative="1" as="geometry">
            <mxPoint x="712" y="160" as="sourcePoint" />
            <mxPoint x="627" y="474" as="targetPoint" />
            <Array as="points">
              <mxPoint x="682" y="150" />
              <mxPoint x="682" y="474" />
              <mxPoint x="627" y="474" />
            </Array>
          </mxGeometry>
        </mxCell>
        <mxCell id="5o1DRQTQQE2t-LGhYz-k-65" style="edgeStyle=orthogonalEdgeStyle;rounded=1;orthogonalLoop=1;jettySize=auto;html=1;curved=0;strokeWidth=2;endArrow=blockThin;endFill=1;exitX=0;exitY=0.25;exitDx=0;exitDy=0;fontFamily=Times New Roman;fontSize=14;entryX=1;entryY=0.25;entryDx=0;entryDy=0;" edge="1" parent="1" source="5o1DRQTQQE2t-LGhYz-k-50" target="5o1DRQTQQE2t-LGhYz-k-7">
          <mxGeometry relative="1" as="geometry">
            <mxPoint x="697" y="125.01999999999998" as="sourcePoint" />
            <mxPoint x="430.56210746017155" y="105" as="targetPoint" />
            <Array as="points">
              <mxPoint x="682" y="135" />
              <mxPoint x="682" y="105" />
              <mxPoint x="437" y="105" />
              <mxPoint x="437" y="205" />
            </Array>
          </mxGeometry>
        </mxCell>
        <mxCell id="5o1DRQTQQE2t-LGhYz-k-66" value="get" style="text;html=1;align=center;verticalAlign=middle;whiteSpace=wrap;rounded=0;fontStyle=2" vertex="1" parent="1">
          <mxGeometry x="391" y="175.5" width="60" height="30" as="geometry" />
        </mxCell>
        <mxCell id="5o1DRQTQQE2t-LGhYz-k-7" value="Main" style="rounded=1;whiteSpace=wrap;html=1;strokeWidth=2;fontFamily=Times New Roman;fontSize=14;fontStyle=1;strokeColor=light-dark(#FF5500,#FF5500);" vertex="1" parent="1">
          <mxGeometry x="294" y="105" width="110" height="400" as="geometry" />
        </mxCell>
        <mxCell id="5o1DRQTQQE2t-LGhYz-k-76" value="init" style="text;html=1;align=center;verticalAlign=middle;whiteSpace=wrap;rounded=0;fontStyle=2" vertex="1" parent="1">
          <mxGeometry x="397" y="20" width="60" height="30" as="geometry" />
        </mxCell>
        <mxCell id="5o1DRQTQQE2t-LGhYz-k-92" value="DMX module" style="rounded=1;whiteSpace=wrap;html=1;strokeWidth=2;fontFamily=Times New Roman;fontSize=14;fontStyle=1" vertex="1" parent="1">
          <mxGeometry x="71" y="119.5" width="110" height="60" as="geometry" />
        </mxCell>
        <mxCell id="5o1DRQTQQE2t-LGhYz-k-93" style="edgeStyle=orthogonalEdgeStyle;rounded=1;orthogonalLoop=1;jettySize=auto;html=1;curved=0;strokeWidth=2;endArrow=blockThin;endFill=1;exitX=0;exitY=0.25;exitDx=0;exitDy=0;fontFamily=Times New Roman;fontSize=14;entryX=1;entryY=0.5;entryDx=0;entryDy=0;" edge="1" parent="1" source="5o1DRQTQQE2t-LGhYz-k-7" target="5o1DRQTQQE2t-LGhYz-k-92">
          <mxGeometry relative="1" as="geometry">
            <mxPoint x="296" y="465.03" as="sourcePoint" />
            <mxPoint x="176" y="417.03" as="targetPoint" />
            <Array as="points">
              <mxPoint x="221" y="205" />
              <mxPoint x="221" y="149" />
            </Array>
          </mxGeometry>
        </mxCell>
        <mxCell id="5o1DRQTQQE2t-LGhYz-k-94" value="read" style="text;html=1;align=center;verticalAlign=middle;whiteSpace=wrap;rounded=0;fontStyle=2;flipV=1;" vertex="1" parent="1">
          <mxGeometry x="171" y="125" width="60" height="30" as="geometry" />
        </mxCell>
        <mxCell id="5o1DRQTQQE2t-LGhYz-k-95" value="Artnet module" style="rounded=1;whiteSpace=wrap;html=1;strokeWidth=2;fontFamily=Times New Roman;fontSize=14;fontStyle=1" vertex="1" parent="1">
          <mxGeometry x="71" y="201" width="110" height="60" as="geometry" />
        </mxCell>
        <mxCell id="5o1DRQTQQE2t-LGhYz-k-96" style="edgeStyle=orthogonalEdgeStyle;rounded=1;orthogonalLoop=1;jettySize=auto;html=1;curved=0;strokeWidth=2;endArrow=blockThin;endFill=1;exitX=0;exitY=0.25;exitDx=0;exitDy=0;fontFamily=Times New Roman;fontSize=14;entryX=1;entryY=0.5;entryDx=0;entryDy=0;" edge="1" parent="1" source="5o1DRQTQQE2t-LGhYz-k-7" target="5o1DRQTQQE2t-LGhYz-k-95">
          <mxGeometry relative="1" as="geometry">
            <mxPoint x="296" y="465.03" as="sourcePoint" />
            <mxPoint x="176" y="495.03" as="targetPoint" />
            <Array as="points">
              <mxPoint x="221" y="205" />
              <mxPoint x="221" y="231" />
            </Array>
          </mxGeometry>
        </mxCell>
        <mxCell id="5o1DRQTQQE2t-LGhYz-k-97" value="read" style="text;html=1;align=center;verticalAlign=middle;whiteSpace=wrap;rounded=0;fontStyle=2;flipV=1;" vertex="1" parent="1">
          <mxGeometry x="171" y="205" width="60" height="30" as="geometry" />
        </mxCell>
        <mxCell id="5o1DRQTQQE2t-LGhYz-k-98" value="get" style="text;html=1;align=center;verticalAlign=middle;whiteSpace=wrap;rounded=0;fontStyle=2" vertex="1" parent="1">
          <mxGeometry x="21" y="125.5" width="60" height="30" as="geometry" />
        </mxCell>
        <mxCell id="5o1DRQTQQE2t-LGhYz-k-99" value="get" style="text;html=1;align=center;verticalAlign=middle;whiteSpace=wrap;rounded=0;fontStyle=2" vertex="1" parent="1">
          <mxGeometry x="16" y="205.5" width="60" height="30" as="geometry" />
        </mxCell>
        <mxCell id="5o1DRQTQQE2t-LGhYz-k-100" value="EEPROM" style="rounded=1;whiteSpace=wrap;html=1;strokeWidth=2;fontFamily=Times New Roman;fontSize=14;fontStyle=1" vertex="1" parent="1">
          <mxGeometry x="71" y="282" width="110" height="60" as="geometry" />
        </mxCell>
        <mxCell id="5o1DRQTQQE2t-LGhYz-k-101" style="edgeStyle=orthogonalEdgeStyle;rounded=1;orthogonalLoop=1;jettySize=auto;html=1;curved=0;strokeWidth=2;endArrow=blockThin;endFill=1;exitX=0;exitY=0.25;exitDx=0;exitDy=0;fontFamily=Times New Roman;fontSize=14;entryX=1;entryY=0.75;entryDx=0;entryDy=0;" edge="1" parent="1" source="5o1DRQTQQE2t-LGhYz-k-7" target="5o1DRQTQQE2t-LGhYz-k-100">
          <mxGeometry relative="1" as="geometry">
            <mxPoint x="296" y="465.05857142857144" as="sourcePoint" />
            <mxPoint x="176" y="590.0585714285714" as="targetPoint" />
            <Array as="points">
              <mxPoint x="221" y="205" />
              <mxPoint x="221" y="327" />
            </Array>
          </mxGeometry>
        </mxCell>
        <mxCell id="5o1DRQTQQE2t-LGhYz-k-102" value="write" style="text;html=1;align=center;verticalAlign=middle;whiteSpace=wrap;rounded=0;fontStyle=2;flipV=1;" vertex="1" parent="1">
          <mxGeometry x="171" y="270.5" width="60" height="30" as="geometry" />
        </mxCell>
        <mxCell id="5o1DRQTQQE2t-LGhYz-k-103" style="edgeStyle=orthogonalEdgeStyle;rounded=1;orthogonalLoop=1;jettySize=auto;html=1;curved=0;strokeWidth=2;endArrow=none;endFill=1;exitX=0;exitY=0.25;exitDx=0;exitDy=0;fontFamily=Times New Roman;fontSize=14;entryX=1;entryY=0.25;entryDx=0;entryDy=0;startArrow=blockThin;startFill=1;" edge="1" parent="1" source="5o1DRQTQQE2t-LGhYz-k-7" target="5o1DRQTQQE2t-LGhYz-k-100">
          <mxGeometry relative="1" as="geometry">
            <mxPoint x="296" y="465.05857142857144" as="sourcePoint" />
            <mxPoint x="176" y="560.0585714285714" as="targetPoint" />
            <Array as="points">
              <mxPoint x="221" y="205" />
              <mxPoint x="221" y="297" />
            </Array>
          </mxGeometry>
        </mxCell>
        <mxCell id="5o1DRQTQQE2t-LGhYz-k-104" value="read" style="text;html=1;align=center;verticalAlign=middle;whiteSpace=wrap;rounded=0;fontStyle=2;flipV=1;" vertex="1" parent="1">
          <mxGeometry x="171" y="300.5" width="60" height="30" as="geometry" />
        </mxCell>
        <mxCell id="5o1DRQTQQE2t-LGhYz-k-105" value="get" style="text;html=1;align=center;verticalAlign=middle;whiteSpace=wrap;rounded=0;fontStyle=2" vertex="1" parent="1">
          <mxGeometry x="16" y="285.5" width="60" height="30" as="geometry" />
        </mxCell>
        <mxCell id="5o1DRQTQQE2t-LGhYz-k-106" style="edgeStyle=orthogonalEdgeStyle;rounded=1;orthogonalLoop=1;jettySize=auto;html=1;curved=0;strokeWidth=2;endArrow=blockThin;endFill=1;exitX=0.25;exitY=0;exitDx=0;exitDy=0;fontFamily=Times New Roman;fontSize=14;entryX=0;entryY=0.5;entryDx=0;entryDy=0;" edge="1" parent="1" target="5o1DRQTQQE2t-LGhYz-k-100" source="5o1DRQTQQE2t-LGhYz-k-50">
          <mxGeometry relative="1" as="geometry">
            <mxPoint x="251" y="90.03" as="sourcePoint" />
            <mxPoint x="176" y="575.03" as="targetPoint" />
            <Array as="points">
              <mxPoint x="730" y="90" />
              <mxPoint x="21" y="90" />
              <mxPoint x="21" y="312" />
            </Array>
          </mxGeometry>
        </mxCell>
        <mxCell id="5o1DRQTQQE2t-LGhYz-k-107" style="edgeStyle=orthogonalEdgeStyle;rounded=1;orthogonalLoop=1;jettySize=auto;html=1;curved=0;strokeWidth=2;endArrow=blockThin;endFill=1;exitX=0.25;exitY=0;exitDx=0;exitDy=0;fontFamily=Times New Roman;fontSize=14;entryX=0;entryY=0.5;entryDx=0;entryDy=0;" edge="1" parent="1" source="5o1DRQTQQE2t-LGhYz-k-50" target="5o1DRQTQQE2t-LGhYz-k-92">
          <mxGeometry relative="1" as="geometry">
            <mxPoint x="702" y="120" as="sourcePoint" />
            <mxPoint x="231" y="290" as="targetPoint" />
            <Array as="points">
              <mxPoint x="730" y="90" />
              <mxPoint x="21" y="90" />
              <mxPoint x="21" y="150" />
              <mxPoint x="71" y="150" />
            </Array>
          </mxGeometry>
        </mxCell>
        <mxCell id="5o1DRQTQQE2t-LGhYz-k-108" style="edgeStyle=orthogonalEdgeStyle;rounded=1;orthogonalLoop=1;jettySize=auto;html=1;curved=0;strokeWidth=2;endArrow=blockThin;endFill=1;exitX=0.25;exitY=0;exitDx=0;exitDy=0;fontFamily=Times New Roman;fontSize=14;entryX=0;entryY=0.5;entryDx=0;entryDy=0;" edge="1" parent="1" source="5o1DRQTQQE2t-LGhYz-k-50" target="5o1DRQTQQE2t-LGhYz-k-95">
          <mxGeometry relative="1" as="geometry">
            <mxPoint x="735" y="125" as="sourcePoint" />
            <mxPoint x="71" y="419" as="targetPoint" />
            <Array as="points">
              <mxPoint x="730" y="90" />
              <mxPoint x="21" y="90" />
              <mxPoint x="21" y="231" />
            </Array>
          </mxGeometry>
        </mxCell>
        <mxCell id="5o1DRQTQQE2t-LGhYz-k-109" value="get" style="text;html=1;align=center;verticalAlign=middle;whiteSpace=wrap;rounded=0;fontStyle=2" vertex="1" parent="1">
          <mxGeometry x="627" y="445" width="60" height="30" as="geometry" />
        </mxCell>
        <mxCell id="5o1DRQTQQE2t-LGhYz-k-110" value="options" style="rounded=1;whiteSpace=wrap;html=1;strokeWidth=2;fontFamily=Times New Roman;fontSize=14;fontStyle=1" vertex="1" parent="1">
          <mxGeometry x="517" y="445" width="110" height="60" as="geometry" />
        </mxCell>
        <mxCell id="5o1DRQTQQE2t-LGhYz-k-112" style="edgeStyle=orthogonalEdgeStyle;rounded=1;orthogonalLoop=1;jettySize=auto;html=1;curved=0;strokeWidth=2;endArrow=blockThin;endFill=1;exitX=1;exitY=0.5;exitDx=0;exitDy=0;fontFamily=Times New Roman;fontSize=14;entryX=0;entryY=0.5;entryDx=0;entryDy=0;" edge="1" parent="1" source="5o1DRQTQQE2t-LGhYz-k-7" target="5o1DRQTQQE2t-LGhYz-k-110">
          <mxGeometry relative="1" as="geometry">
            <mxPoint x="409" y="305" as="sourcePoint" />
            <mxPoint x="522" y="317" as="targetPoint" />
            <Array as="points">
              <mxPoint x="456" y="305" />
              <mxPoint x="456" y="475" />
            </Array>
          </mxGeometry>
        </mxCell>
      </root>
    </mxGraphModel>
  </diagram>
</mxfile>
